<?xml version="1.0" encoding="utf-8"?>

<!DOCTYPE svg PUBLIC "-//W3C//DTD SVG 1.1//EN" "http://www.w3.org/Graphics/SVG/1.1/DTD/svg11.dtd">
<svg version="1.1" id="Layer_1" xmlns="http://www.w3.org/2000/svg" xmlns:xlink="http://www.w3.org/1999/xlink" x="0px" y="0px"
	 viewBox="0 0 2223.086 1638.737" enable-background="new 0 0 2223.086 1638.737" xml:space="preserve">
<path d="M2200.722,136.035c-33.683-3.922-54.022,34.683-77.778,22.222c7.866-33.661,76.661-63.017,72.222-72.222
	c-12.855,11.667-21.9,15.978-31.611,17.217l0.2-19.339c9.456-23.611,48.978-49.7,25.856-64.544
	c-8.65,16.128-30.417,39.272-30.544,60.039l-14.45,23.689c-1.611-0.122-3.267-0.256-5.005-0.394
	c2.244-104.356-5.961,38.606-33.333,50c-3.567-22.361,7.222-59.072-5.555-72.222c-19.1,36.461-0.2,110.911-44.445,122.222
	c-5.706-35.478,20.5-68.206,5.556-94.444c-27.033,45.189-11.117,133.328-55.556,161.111c-2.344-54.883,12.2-60.817,11.111-116.667
	c-56.528,23.1-14.467,144.794-72.222,166.667c-4.006-50.367,17.255-104.878,11.111-138.889c-52.656,41.789-9.911,178.978-83.333,200
	c11.994-47.261,20.172-98.344,22.222-155.556c-74.494,23.672-15.078,210.822-94.444,211.111c9.717-51.439,30.9-120.9,16.667-177.778
	c-66.594,37.128-20.389,216.628-94.444,227.778c9.922-72.117,20.272-109.494,22.222-188.889
	c-92.361,26.156-11.111,225.928-111.111,244.444c12.311-87.406,25.572-148.4,22.222-227.778
	c-95.906,53.783-12.695,270.894-133.333,288.889c19.228-75.217,35.706-153.189,33.333-250
	c-73.778,36.394-69.961,185.25-88.889,283.333c-18.961-0.167-39.917,26.383-55.556,11.111
	c25.533-76.322,36.678-167.028,33.333-272.222c-77.272,52.356-68.617,190.644-88.889,300
	c-16.544,11.233-32.522,23.033-61.111,22.222c25.661-87.311,34.556-220.983,38.889-311.111
	c-82.928,70.111-82.061,190.317-94.444,327.778c-16.733,12.894-33.933,25.328-61.111,27.778
	c21.283-99.089,26.578-214.161,38.889-322.222c-85.728,56.189-90.072,192.033-94.444,344.444
	c-31.172,4.017-43.594,26.778-77.778,27.778c40.722-86.233,30.233-215.756,44.444-338.889
	c-89.005,48.15-104.206,217.928-105.556,372.222c-31.022,6.011-42.172,31.9-77.778,33.333
	c35.144-94.494,33.239-255.639,27.778-372.222c-98.183,80.256-107.744,249.739-88.889,411.111
	c-27.672,9.461-56.378,47.2-88.889,33.333c46.356-94.311,27.356-267.706,38.889-411.111
	c-110.789,70.85-114.556,271.556-111.111,472.222c-26.394,10.639-38.228,35.844-72.222,38.889
	c58.833-122.8,4.478-300.622,16.667-461.111c-124.583,52-119.283,343.089-88.889,516.667c-30.95,26.455-49.744,65.072-100,72.222
	c50.611-177.378,4.456-375.706-16.667-533.333c-122.994,120.872-102.956,426.867-61.111,622.222
	c-86.667,100.578-207.194,195.678-288.889,300c-20.361,26-55.517,56.389-50,72.222h100
	c109.178-111.194,193.672-247.072,305.556-355.556c146.106,89.9,326.906,224.978,561.111,172.222
	c-144.756-89.756-293.539-208.917-494.444-233.333c31.667-31.3,58.45-67.478,100-88.889
	c123.489,105.456,280.85,245.267,494.444,194.444c-156.65-65.572-236.728-207.717-438.889-227.778
	c61.217-105.239,130.972-33.867,188.889,5.556c89.933,61.211,196.317,148.728,338.889,122.222
	c-116.2-87.506-217.75-189.661-377.778-233.333c26.094-22.056,53.172-43.128,88.889-55.556
	c105.772,83.911,205.839,200.483,388.889,188.889c-62.583-54.594-120.255-91.378-177.778-133.333
	c-20.428-14.9-36.4-40.817-61.111-55.556c-27.633-16.489-63.678-11.778-83.333-44.444c15.872-19.317,48.867-21.506,72.222-33.333
	c85.5,80.6,182.617,204.511,333.333,183.333c-100.117-62.85-164.328-161.6-283.333-205.556
	c19.35-19.539,49.833-27.944,77.778-38.889c82.833,72.722,137.722,173.389,277.778,188.889
	c-48.489-73.744-139.361-153.222-222.222-211.111c98.794-52.811,127.583,54.339,200,100c45.467,28.667,87.505,36.483,138.889,50
	c-53.067-83.972-135.067-139.006-216.667-194.444c27.711-0.067,35.661-19.894,66.667-16.667
	c81.172,48.05,165.456,147.367,277.778,127.778c-69.061-56.867-142.144-109.706-222.222-155.556
	c118.483-81.561,179.311,121.194,316.667,77.778c-64.628-48.044-110.906-100.706-205.556-127.778
	c92.289-90.217,168.106,94.006,300,50c-61.761-40.094-125.05-78.65-194.444-111.111c76.667-83.417,166.367,88.111,266.667,33.333
	c-53.289-35.6-114.161-63.617-183.333-83.333c50.972-101.528,153.572,62.922,244.444,5.556
	c-56.122-21.656-103.9-51.656-166.667-66.667c39.222-95.867,155.467,39.944,233.333-11.111
	c-41.25-39.083-128.8-11.917-155.555-55.556c36.417-55.078,155.817,22.106,205.555-27.778
	C2070,342.685,2015,340.274,1972.944,324.924c19.028-55.05,143.445-4.7,177.778-44.444c-38.167-7.611-94.822-2.539-122.222-5.556
	c24.972-52.806,125.628-29.928,155.556-77.778c-43.583-6.45-74.578,29-105.556,16.667
	C2095.027,163.674,2176.539,178.519,2200.722,136.035z M189.611,1441.591C193.25,1445.23,187.283,1439.263,189.611,1441.591
	L189.611,1441.591z M589.611,1102.702C593.25,1106.341,587.283,1100.374,589.611,1102.702L589.611,1102.702z M1506.277,441.591
	C1503.95,439.263,1509.916,445.23,1506.277,441.591L1506.277,441.591z M1511.833,591.591
	C1509.505,589.263,1515.472,595.23,1511.833,591.591L1511.833,591.591z M1606.277,480.48
	C1603.95,478.152,1609.916,484.119,1606.277,480.48L1606.277,480.48z"/>
</svg>
